<?xml version="1.0" encoding="UTF-8"?>
<svg width="127.43mm" height="97.619mm" version="1.1" viewBox="0 0 127.43 97.619" xml:space="preserve" xmlns="http://www.w3.org/2000/svg"><g transform="translate(-987.47 -1163.7)"><g transform="translate(653.92 441.33)" fill="#000"><path d="m360.79 773.1c-0.38618-4e-3 -0.77244-4e-3 -1.1587 2e-3l-2.8e-4 -2.9e-4c-10.3 0.15031-20.527 3.8457-25.165 10.244-1.5414 2.1266-1.3346 2.5154 2.1837 4.1048 3.0806 1.3917 10.196 8.0194 19.859 18.498 14.959 16.22 23.119 18.024 33.917 7.495l3.4372-3.1029-2.2605-3.042c-1.1561-1.5558-3.7556-5.1452-6.1797-8.0378-3.7186-4.4384-5.5964-6.2059-9.8346-8.3069-1.6445-0.8152-5.977-3.0143-10.058-4.3034-4.1364-1.3066-24.451-3.3175-7.483-2.4032 0.18366 0.01 7.3305 0.89347 10.591 1.6146 3.1657 0.70055 6.5102 2.0658 7.4906 2.3692 4.759 1.4726 9.8445 5.7792 13.238 9.7984l2.6041 3.0843c1.6e-4 1.2e-4 4e-4 1.7e-4 5.5e-4 2.9e-4 4e-3 3e-3 9e-3 6e-3 0.013 0.01 0.0465 0.0354 0.0934 0.07 0.14134 0.10346 0.0367 0.0278 0.0576 0.042 0.0907 0.0744 0.01 9e-3 0.0187 0.0194 0.0274 0.0297 0.0158 6e-3 0.0321 0.0116 0.0472 0.0189 0.0317 0.0143 0.0628 0.0299 0.0924 0.0483 0.01 6e-3 0.0197 0.0119 0.0297 0.0178l-0.15888-2.6603c-0.5098-8.5227-6.7093-17.464-15.194-21.914-4.7268-2.4789-10.478-3.6762-16.27-3.7419zm63.903 7.4481c-8.7387 0.0974-16.926 3.1944-22.495 9.1496-2.3849 2.5505-6.8279 11.608-6.115 12.466 0.19301 0.2323 2.9503-0.5445 8.734-2.5125 6.7503-2.3633 10.321-3.4141 14.877-4.121 1.8137-0.28138 10.599-1.0646 17.53-0.0447 6.1825 0.90985 11.757 3.0964 12.256 3.6152 0.48617 0.50492-3.4358-0.28092-14.659-1.2072-2.2072-0.18218-3.5613-0.18878-6.3001-0.10307-1.6246 0.0508-3.4621 0.17477-6.4059 0.3053-7.445 0.3308-16.216 4.7639-21.03 9.2794l-4.5722 3.051 3.5276 2.7965c9.102 7.2157 23.282 9.8763 41.383 1.434 8.9556-4.1768 14.71-7.0253 17.804-10.967l1.7523-2.2326-5.0394-6.0658c-3.7207-4.4785-6.1821-6.7627-9.4054-8.7287-6.5971-4.0237-13.952-6.0374-20.995-6.1147-0.28298-3e-3 -0.56531-3e-3 -0.84721 0z" stroke-width=".8062"/><path d="m396.19 722.42h0.86691c13.053 0.64014 23.054 6.4516 30.005 17.434 2.8793 5.025 4.5007 10.419 4.8643 16.182v3.7566c-0.72946 9.0191-4.2612 16.741-10.596 23.166-0.91315 0.82549-1.8443 1.6282-2.7934 2.4081-1.0786 0.64411-2.1704 0.67628-3.275 0.0963-0.70797-0.71202-0.94878-1.5628-0.72242-2.5526 0.1284-0.2569 0.25689-0.51369 0.38529-0.77059 9.6362-7.7134 13.521-17.698 11.655-29.956-2.0105-9.8086-7.4205-17.049-16.23-21.721-9.1986-4.3284-18.381-4.2962-27.548 0.0963-10.025 5.5097-15.532 14.002-16.519 25.477-0.41565 9.6429 2.9075 17.718 9.9694 24.225 0.75084 0.59017 1.4733 1.2163 2.1673 1.8783 0.63805 1.1333 0.55781 2.2089-0.2408 3.2268-1.0807 0.75729-2.2045 0.82154-3.3713 0.19264-6.625-5.5428-10.88-12.559-12.763-21.047-0.28143-1.5782-0.49013-3.1514-0.6261-4.7198v-3.7566c1.0009-12.395 6.716-21.914 17.146-28.56 5.4563-3.1699 11.332-4.8556 17.627-5.057z" stroke-width=".096323"/><path d="m395.32 735.13c7.96-0.22395 14.429 2.73 19.409 8.8617 3.6179 5.1141 5.0628 10.797 4.3346 17.049-0.42315 3.0036-1.4185 5.7969-2.986 8.3801-0.70133 0.72937-1.5522 0.97017-2.5526 0.72243-1.0058-0.42036-1.5837-1.175-1.7338-2.2636 0.061-0.46254 0.17338-0.91198 0.33713-1.3485 2.8185-5.1848 3.1075-10.515 0.8669-15.99-3.3272-6.7262-8.7535-10.29-16.279-10.692-4.854 0.0861-9.012 1.8039-12.474 5.1533-4.1407 4.1698-5.8906 9.1947-5.2496 15.075 0.18976 1.4975 0.57505 2.9424 1.1559 4.3345 0.41737 0.89898 0.83483 1.7981 1.2522 2.697 0.3276 1.5125-0.23426 2.5239-1.6857 3.0342-1.3465 0.22713-2.3257-0.27048-2.9378-1.493-3.6708-7.3307-3.6386-14.651 0.0963-21.962 4.1536-6.9839 10.302-10.836 18.446-11.559z" stroke-width=".096323"/><path d="m395.7 752.57c-2.4061 0.56031-3.8027 2.0694-4.1901 4.5272-0.2015 2.3103 0.68149 4.0601 2.6489 5.2496 2.451 1.0443 4.6183 0.64305 6.5018-1.204 1.4024-1.9517 1.5628-4.0066 0.48161-6.1647-1.314-1.8843-3.1282-2.687-5.4422-2.4081z" opacity="0" stroke-width=".096323"/><path d="m395.7 747.75c4.7267-0.11838 8.1141 1.9366 10.162 6.1647 1.5296 4.3966 0.61454 8.2013-2.7452 11.414-4.3025 3.1466-8.6048 3.1466-12.907 0-3.3598-3.213-4.2748-7.0177-2.7452-11.414 1.6217-3.5633 4.3669-5.6182 8.2356-6.1647zm0 4.8162c-2.4061 0.56031-3.8027 2.0694-4.1901 4.5272-0.2015 2.3103 0.68149 4.0601 2.6489 5.2496 2.451 1.0443 4.6183 0.64305 6.5018-1.204 1.4024-1.9517 1.5628-4.0066 0.48161-6.1647-1.314-1.8843-3.1282-2.687-5.4422-2.4081z" stroke-width=".096323"/><path d="m396.53 771.69c-1.9514 0.0121-3.8655 0.33118-5.7421 0.95717-2.7492 1.0481-4.1299 3.0546-4.1419 6.02 0.32706 6.4868 1.305 12.864 2.9246 19.133 0.0593 0.0556 0.11861 0.11106 0.17752 0.16706 0.17344 0.14892 0.33748 0.30873 0.50148 0.46784 0.16536 0.15071 0.31074 0.32155 0.45286 0.49385 0.13591 0.17941 0.38627 0.47597 0.43053 0.679 0.0388 0.17796 0.06 0.35902 0.0789 0.54049 0.11429 0.1298 0.21891 0.26735 0.32027 0.40734 0.10242 0.15984 0.1777 0.28143 0.23011 0.36241 0.039 0.0712 0.078 0.14246 0.11703 0.2137 7e-3 0.0119 0.0108 0.0218 0.017 0.0334 0.3754 0.31064 0.7722 0.59458 1.144 0.90968 0.083 0.0704 0.16383 0.14333 0.24565 0.21511 0.15699 0.14529 0.30879 0.29571 0.4571 0.44947 0.82111 0.22544 1.666 0.358 2.5354 0.39406h0.77059c0.25103-0.013 0.50072-0.0343 0.74939-0.0619 0.43458-0.21139 0.87106-0.41921 1.3108-0.61992 0.56511-0.3766 1.1404-0.73762 1.7433-1.0519 0.67678-0.3463 1.368-0.669 2.0118-1.0753 0.0862-0.0566 0.17147-0.11429 0.25696-0.17187 2.0047-7.039 3.1921-14.217 3.5598-21.533-0.0644-0.56416-0.14443-1.1261-0.24056-1.6856-0.26152-1.3832-0.95214-2.491-2.0712-3.3232-1.7923-1.1306-3.7508-1.7406-5.8756-1.8301-0.65878-0.0642-1.3134-0.0942-1.9638-0.0902z" stroke-width=".096323"/></g></g></svg>
