<svg xmlns="http://www.w3.org/2000/svg" width="200px" height="200px" viewBox="0 0 512 512" xmlns:v="https://vecta.io/nano"><path d="M0 0v512h512V0H0z" fill="transparent" fill-opacity="0"/><path d="M153 239c-19.3 10-36 24.8-54.3 36.5-9.8 8.3-25.3 12.6-28.7 26 10.3 23 37.5 34 53.6 53 23.2 14.8 12.4 37.4 10.8 58.5-.6 19.8 8 38.2 19.5 53.8 0 14-32 35-4 41 32-.2 63 1.3 95 0 19-6.4 41 2.6 61-2.3 23-1.2 47-.3 70-2.6 23-16-28-31-1.6-47 14-18 10.7-42 5.5-62 18-15 18.3-37 20-58 5-20 14-39 19-59-4-24-39-42-46-57 18-29 27-64 20-98-6.6-55-51-101-105-113-60-15-128 17-155.5 72.5-16 31-18 68.4-9.4 102 5.6 20.4 17 38 29.6 54.4z" fill="#fff"/><path d="M328 25l1 1zm-61 1l1 1-1-1z"/><path d="M180 329l18 8c9.2-17.5 14.8-38.4 21.6-57 2.3-6.3 3.5-17 9.5-21.2 5-3.3 15-.5 20 0 11 1 24 .7 34-1.7 53-11 90-57 92-111 3-73-69-132-141-117-44 10-76 44-88 86-10 38 2 79 28 107 7 8 15 14 24 20 3.8 3 10 5 11 10 1.4 6-4.3 14-6 19-6 20-16.4 39-21.2 59z"/><path d="M275 27l1 1-1-1m-39 1l1 1-1-1m-8 2l1 1-1-1zm63 1l1 1-1-1zm-84 7l1 1-1-1zm105 2l1 1-1-1zm1 0l1 1-1-1zm7 4l1 1-1-1z"/><path d="M321 45l1 1-1-1m-130 2l1 1-1-1zm1 0l1 1-1-1zm-2 1l1 1-1-1zm136 0l1 1-1-1z"/><path d="M327 49l1 1-1-1m32 1l1 1-1-1zm-173 1l1 1-1-1m-1 1l1 1-1-1m-1 1l1 1-1-1zm-2 1l1 1-1-1m-1 1l1 1-1-1zm153 0l1 1-1-1zm-154 1l1 1-1-1zm-1 1l1 1-1-1m-1 1l1 1-1-1m-1 1l1 1zm-1 1l1 1-1-1m-1 1l1 1-1-1zm166 0l1 1-1-1zm-167 1l1 1-1-1z"/><path d="M342 62l1 1-1-1zm-169 1l1 1-1-1z"/><path d="m343 63 1 1-1-1m-171 1 1 1-1-1m172 0 1 1-1-1m-173 1 1 1-1-1m-1 1 1 1-1-1z"/><path d="m299 75.5c-52.4 11-36.2 92.8 16 81.7 52.7-11.2 36.3-92.8-16-81.7z" fill="#fff"/><path d="M354 77l1 1-1-1zm-193 1l1 1-1-1z"/><path d="m203 78.4c-42 5.6-52.3 62.7-12 80 7.5 3 18 2.6 26 1.4 48.6-7.5 34.8-87.8-14-81.4z" fill="#fff"/><path d="M289 78l1 1-1-1m35 0l1 1-1-1zm31 0l1 1-1-1zm-134 2l1 1-1-1zm107 0l1 1-1-1zm28 0l1 1-1-1zm-74 2l1 1-1-1zm-97 1l1 1-1-1zm96 0l1 1-1-1z"/><path d="M358 83l1 1-1-1m-174 1l1 1-1-1zm44 0l1 1-1-1zm52 0l1 1-1-1z"/><path d="M359 84l1 1-1-1zm-177 1l1 1-1-1m48 0l1 1-1-1zm104 0l1 1-1-1z"/><path d="M359 85l1 1-1-1m-203 1l1 1-1-1m25 0l1 1-1-1m50 0l1 1-1-1zm46 0l1 1-1-1z"/><path d="M305 86l1 1-1-1zm30 0l1 1-1-1zm-103 1l1 1-1-1zm44 0l1 1-1-1z"/><path d="M283 134c3-6.3 4.8-9.4 10.2-11.7 15.7-7 24.5 8.4 22.8 21.7 38.8-11.2 14-72-22-54-4.3 2.3-8.2 6-11 10-3 4.5-5.2 9.5-5.7 15-.6 7 2.6 13 5.7 19z"/><path d="M360 87l1 1-1-1m-205 1l1 1-1-1zm23 0l1 1-1-1zm98 0l1 1zm21 0l1 1-1-1zm-62 1l1 1-1-1zm40 0l1 1-1-1zm44 0l1 1-1-1zm-118 1l1 1-1-1z"/><path d="M196 147c-2-8-3-15 3.4-21.8 10.5-11 28.7-3.6 30.6 10.8 9.5-9.4 6-29.2-3.2-37.7-12.5-11.8-32-10.4-43 2.7-3.6 4.5-5.2 9.2-6 15-.8 5.6.2 12 2.5 17 3.2 6.8 9 11.2 15.7 14zm78-57l1 1-1-1zm46 0l1 1-1-1zm-145 1l1 1z"/><path d="M197 91l1 1-1-1zm18 0l1 1-1-1zm58 0l1 1-1-1zm18 0l1 1-1-1zm-1 1l1 1-1-1zm34 0l1 1-1-1zm-86 1l1 1-1-1m34 0l1 1-1-1zm16 0l1 1-1-1zm1 0l1 1-1-1z"/><path d="M325 93l1 1-1-1zm-152 1l1 1-1-1zm18 0l1 1-1-1zm30 0l1 1-1-1zm1 0l1 1-1-1m49 0l1 1-1-1zm16 0l1 1-1-1z"/><path d="M326 94l1 1-1-1zm-86 1l1 1-1-1zm46 0l1 1-1-1zm78 0l1 1zm-79 1l1 1-1-1zm-1 1l1 1-1-1zm-158 2l1 1-1-1zm59 0l1 1-1-1zm181 0l1 1-1-1zm-197 1l1 1-1-1zm15 0l1 1-1-1zm161 0l1 1-1-1m21 0l1 1-1-1zm-217 1l1 1-1-1zm33 1l1 1-1-1zm48 0l1 1-1-1zm14 0l1 1-1-1zm102 1l1 1-1-1zm-113 4l1 1-1-1zm-67 1l1 1-1-1zm80 0l1 1-1-1zm32 0l1 1-1-1"/><path d="M369 108l1 1-1-1m-223 1l1 1-1-1zm32 0l1 1-1-1zm56 1l1 1-1-1zm138 7l1 1-1-1zm-159 2l1 1-1-1zm-7 1l1 1-1-1m89 1l1 1-1-1zm9 0l1 1-1-1zm-83 1l1 1-1-1zm-78 1l1 1-1-1zm57 0l1 1-1-1zm23 0l1 1-1-1zm-24 1l1 1-1-1z"/><path d="M224 124l1 1-1-1m54 0l1 1-1-1zm11 0l1 1-1-1zm21 0l1 1-1-1zm1 0l1 1-1-1zm-113 1l1 1-1-1z"/><path d="M225 125l1 1-1-1zm22 0l1 1-1-1zm19 0l1 1-1-1zm46 0l1 1-1-1zm-146 5l1 1-1-1zm29 0l1 1-1-1zm120 0l1 1-1-1zm-136 1l1 1-1-1zm50 0l1 1-1-1zm4 0l1 1-1-1zm48 0l1 1-1-1zm3 0l1 1-1-1z"/><path d="m282 132 1 1-1-1z"/><path d="M345 132l1 1-1-1m-178 1l1 1-1-1zm13 0l1 1-1-1zm14 0l1 1-1-1zm38 0l1 1-1-1zm-1 2l1 1-1-1m-62 3l1 1-1-1zm74 0l1 1-1-1m28 0l1 1-1-1zm71 0l1 1-1-1zm-173 1l1 1-1-1zm74 0l1 1-1-1z"/><path d="M272 139l1 1-1-1zm53 0l1 1-1-1z"/><path d="M342 139l1 1-1-1m-100 1l1 1-1-1zm31 1l1 1-1-1z"/><path d="M274 142l1 1-1-1zm1 1l1 1-1-1zm-85 1l1 1-1-1z"/><path d="M276 144l1 1-1-1zm-84 1l1 1-1-1zm45 1l1 1-1-1zm-62 1l1 1z"/><path d="M237 147l1 1-1-1m42 0l1 1-1-1zm-103 1l1 1-1-1zm60 0l1 1-1-1z"/><path d="M280 148l1 1-1-1zm-103 1l1 1-1-1z"/><path d="M281 149l1 1-1-1zm-103 1l1 1-1-1z"/><path d="M282 150l1 1-1-1zm46 2l1 1-1-1zm-146 1l1 1-1-1zm143 0l1 1-1-1zm1 0l1 1-1-1m-142 1l1 1-1-1zm45 0l1 1-1-1m91 1l1 1-1-1zm-97 2l1 1-1-1m-32 1l1 1zm24 2l1 1-1-1zm-72 2l1 1zm226 15l1 1-1-1zm-2 6l1 1zm-218 1l1 1-1-1zm217 1l1 1-1-1zm0 1l1 1-1-1zm24 1l1 1-1-1zm-26 3l1 1-1-1m-212 1l1 1-1-1zm212 0l1 1-1-1zm-211 2l1 1-1-1m207 5l1 1zm-204 1l1 1-1-1z"/><path d="M157 200l1 1-1-1zm202 0l1 1-1-1zm0 1l1 1-1-1zm-198 6l1 1-1-1zm194 0l1 1-1-1zm-192.7 1.7c-108.2 202.2-54 101 0 0zM354 208l1 1-1-1zm-191 2l1 1-1-1m3 4l1 1-1-1m1 1l1 1-1-1m182 0l1 1-1-1m-181 1l1 1-1-1zm2 3l1 1-1-1m1 1l1 1-1-1m1 1l1 1-1-1m172 0l1 1-1-1z"/><path d="M173 222l1 1-1-1zm170 0l1 1-1-1m-1 1l1 1-1-1zm-167 1l1 1-1-1zm166 0l1 1-1-1z"/><path d="m176 225 1 1-1-1z"/><path d="m177 226 1 1-1-1m1 1 1 1-1-1m1 1 1 1-1-1m158 0 1 1-1-1z"/><path d="M180 229l1 1-1-1zm156 0l1 1-1-1z"/><path d="M181 230l1 1-1-1zm153 0l1 1-1-1zm1 0l1 1-1-1z"/><path d="M182 231l1 1-1-1zm2 1l1 1-1-1m1 1l1 1-1-1m1 1l1 1-1-1m1 1l1 1-1-1m3 2l1 1zm136 0l1 1-1-1z"/><path d="M191 238l1 1-1-1zm1 0l1 1-1-1zm128 3l1 1-1-1m-1 1l1 1-1-1zm15 6c-222.7 176-111.3 88 0 0z"/><path d="M237 270c-8.5 16-15.4 36.6-20 54-1.4 5-6.3 11.7-5 17 3.2 12.8 17.2 22.5 29 25.6 22.3 5.8 48.2 7.5 70-1 4-1.6 9.7-3 12-6.8 2-3.6.8-9 1.2-12.8 1-10.2 6.5-18.5 16.8-21 0-9 1.7-18.7 8.5-25.5 4-4 10.2-6 14-1.2 9.8 12.3-3.6 27.7 12.5 36.7 13.8-29.4 26.3-75-15-88.7-5.2-1.8-11.4-4.7-17-4-10.3 1-22.7 14-32.4 18.6-22.3 10-50.6 14-74.6 9zm-38-27l1 1-1-1zm116 1l1 1zm-113 1l1 1-1-1zm111 0l1 1-1-1zm1 0l1 1-1-1zm-3 1l1 1-1-1zm-106 1l1 1-1-1z"/><path d="M365 247l1 1-1-1zm-158.3 2.3c-137.8 175-69 87.6 0 0zm194.3.7l1 1-1-1z"/><path d="M181 251c-120.7 174-60.3 87 0 0zm147 0l1 1-1-1zm-147 2c-120.7 172.7-60.3 86.3 0 0z"/><path d="M137 338c3.2-4.2 6.6-7.2 11-10-2-4-6.7-6.5-7.5-11-1.6-9.4 12.2-21 20.5-21.8 4.4-.5 12.3 5 15.5 3 2.5-1.7 3.4-6.6 4.5-9.2 3-7.5 13-26 8-33.7-2.5-4-7.7-3.8-13.4-2.2-7.6 3-16 8-19.6 10-13.6 8-26.5 17-39 27-4 3-12.3 8-13.5 13-1.2 6 3 11 6.2 14 7.7 9 17.2 17 27.3 22z"/><path d="M185.7 252.3c-123.8 173-62 86.6 0 0zM170 255l1 1-1-1zm119 0l1 1-1-1zm31 1l1 1-1-1zm-90 1l1 1-1-1zm51 0l1 1-1-1z"/><path d="M318 257l1 1-1-1zm-154.7 1.7c-109 169-54.4 84.4 0 0zm41.7-.7l1 1-1-1m23 0l1 1-1-1z"/><path d="M161 259l1 1zm66 0l1 1-1-1zm-66.7 1.7c-107 167.5-53.4 83.7 0 0zm65.7-.7l1 1-1-1z"/><path d="M154 263l1 1-1-1m69 4l1 1-1-1z"/><path d="M386 267l1 1-1-1m-198 1l1 1-1-1zm13 0l1 1-1-1z"/><path d="m223.3 268.7c-149 162.2-74.4 81 0 0z"/><path d="M222 270c-148 161.3-74 80.7 0 0zm14 0l1 1-1-1z"/><path d="M200 271c-133.3 160.7-66.7 80.3 0 0zm45 0l1 1-1-1"/><path d="m139 273 1 1-1-1z"/><path d="m186.3 273.7c-124.2 159-62 79.4 0 0z"/><path d="M137 274l1 1-1-1zm62 0l1 1-1-1zm-14 1l1 1zm13.5 1.6c-132.3 157-66.2 78.5 0 0z"/><path d="m234 275 1 1-1-1zm-100 1 1 1-1-1zm-1 1 1 1-1-1z"/><path d="M131 278l1 1-1-1m53.3.7s0 1 .4.6c0 0 0-1-.4-.6zm-54.3.3l1 1-1-1zm53.3 1.7c-122.2 154.2-61 77 0 0z"/><path d="M127 281l1 1-1-1zm-1.3 1.3c-.5.5.6.4.6.4.5-.5-.6-.4-.6-.4zm92.3-.3l1 1-1-1z"/><path d="M231 282l1 1-1-1m-107 1l1 1-1-1zm-41 3l1 1-1-1zm133.3 1.7c-144.2 149.5-72 74.7 0 0z"/><path d="m180 289 1 1-1-1z"/><path d="m215 289c-143.3 148.7-71.7 74.3 0 0z"/><path d="M193 290l1 1-1-1m22.3.7s0 1 .4.6c0 0 0-1-.4-.6zm-23 3c-128.2 145.5-64 72.7 0 0z"/><path d="m109 295 1 1-1-1m57 0c-110.7 144.7-55.3 72.3 0 0z"/><path d="m178.3 295.7c-119 144.2-59.4 72 0 0z"/><path d="M191.3 295.7c-127.5 144.2-63.7 72 0 0zm21.7-.7l1 1-1-1z"/><path d="M108 296l1 1-1-1m46.7.3c-103 143.8-51.6 72 0 0zm58.3-.3l1 1-1-1z"/><path d="m107 297 1 1z"/><path d="M171.3 297.7c-114.2 143-57 71.4 0 0zm19.7-.7l1 1-1-1z"/><path d="M226 297l1 1-1-1m-119.7 1.7c-71 142.2-35.4 71 0 0zm70.7-.7l1 1-1-1z"/><path d="m190.3 298.7c-127 142.2-63.4 71 0 0z"/><path d="M173.7 299.3c-115.8 141.8-58 71 0 0zm2.3-.3l1 1-1-1m-74 3c-68 140-34 70 0 0z"/><path d="M147 302c1 1 1 1 0 0m41 2l1 1-1-1zm22 0l1 1-1-1zm-1 2l1 1-1-1zm-1 6c-138.7 133.3-69.3 66.7 0 0zm-102 0l1 1z"/><path d="m185 312 1 1-1-1z"/><path d="M207.3 312.7c-138.2 133-69 66.4 0 0zM107 313l1 1-1-1z"/><path d="M140 313c-93.3 132.7-46.7 66.3 0 0zm45 0l1 1-1-1z"/><path d="M108 314l1 1-1-1zm98.3.7c-137.5 131.5-68.7 65.7 0 0z"/><path d="M109 315l1 1-1-1m1.3 1.7c-73.5 130.2-36.7 65 0 0zm73 1c-122.2 129.5-61 64.7 0 0z"/><path d="M111 318l1 1-1-1m1 1l1 1-1-1zm71 0l1 1-1-1zm35 0l1 1-1-1z"/><path d="M382 320l1 1-1-1m-267 1l1 1-1-1m1 1l1 1zm1 1l1 1-1-1m1 1l1 1-1-1m28 1l1 1-1-1m2.3 1.7c-99 123.5-49.4 61.7 0 0zm31.7-.7l1 1-1-1z"/><path d="M335 326l1 1-1-1m-213 1l1 1-1-1m93.3.7c-143.5 123-71.7 61.4 0 0zm-92.3.3l1 1-1-1z"/><path d="M147 328l1 1-1-1zm54 0l1 1-1-1zm.3 1.7c-134.2 121.5-67 60.7 0 0z"/><path d="m214.3 329.7c-143 121.5-71.4 60.7 0 0z"/><path d="M184 330l1 1-1-1zm189 3l1 1zm-182 1l1 1-1-1zm1 0l1 1-1-1zm7 0l1 1-1-1zm128 0l1 1-1-1z"/><path d="M374 334l1 1-1-1zm-179.7 1.7c-129.5 117.5-64.7 58.7 0 0z"/><path d="M375 335l1 1-1-1m-241.3 1.3c-89 117-44.6 58.6 0 0zm61.3-.3l1 1-1-1z"/><path d="M198.3 336.7c-132.2 117-66 58.4 0 0zm-94.3.3l1 1-1-1z"/><path d="M197 337l1 1-1-1zm146 1l1 1-1-1z"/><path d="M344 338.7c-8.5 3.5-8.5 27.2-1.4 32.3 3.8 2.8 17.2-.7 21.4-2.3 23.5-9.5-4.6-36-20-30z"/><path d="M341 339l1 1-1-1m-1 1l1 1-1-1zm17 0l1 1-1-1zm-146 1l1 1-1-1zm1 1l1 1-1-1zm127 0l1 1-1-1m22 0l1 1-1-1zm-37 1l1 1-1-1zm-165 1c-106 112-53 56 0 0zm54 0l1 1-1-1zm151 0l1 1-1-1z"/><path d="m201 365c-6.8-9-22-17.4-33-19.5-4.5-1-12.2-1.7-14.2 3.6-2.6 7 4 13 9.2 16 11.8 6 26 4 38 1z"/><path d="m168 345 1 1-1-1z"/><path d="M214.3 345.7c-143 111-71.4 55.4 0 0zM365 345l1 1-1-1zm-150 2l1 1-1-1z"/><path d="M176 348l1 1-1-1zm2.7 1.3c-119 108.5-59.6 54.3 0 0zm37.3-.3l1 1-1-1zm-35.3 1.3c-120.5 107.8-60.3 54 0 0z"/><path d="M217 350l1 1-1-1zm153 0l1 1-1-1zm-188 1l1 1-1-1zm1 0l1 1-1-1z"/><path d="M218 351l1 1-1-1zm153 0l1 1-1-1zm-186 1l1 1-1-1zm-32 2c-102 105.3-51 52.7 0 0zm69 2l1 1-1-1m-30 1l1 1-1-1z"/><path d="M223 357l1 1-1-1zm-68 1l1 1-1-1zm183 0l1 1-1-1zm-143.3 1.3c-129.8 101.8-65 51 0 0zM320 361l1 1-1-1zm-121 1l1 1-1-1zm120 0l1 1-1-1z"/><path d="M200 363l1 1-1-1zm29 0l1 1-1-1zm-68 1l1 1-1-1z"/><path d="m162 364 1 1-1-1m39 0-1 2h2c0-2 0.3-1.4-1-2z"/><path d="M163.7 365.3c-109 97.8-54.6 49 0 0zm35.3-.3l1 1-1-1z"/><path d="m311.7 365.3c-207.8 97.8-104 49 0 0z"/><path d="m196 366c-130.7 97.3-65.3 48.7 0 0z"/><path d="M134 367l1 1-1-1zm57 0l1 1-1-1zm53 0l1 1-1-1m61 0l1 1-1-1zm61 0l1 1-1-1zm-2 1l1 1-1-1zm-66 1l1 1-1-1zm59 16c-17 3.2-27 3-31-16-12 1.6-23.6 7.8-36 9.6-4 .6-11-1-14.3 2-5 4.8-5.4 14-5.7 20.4-.3 4.7-2.4 9.3-1.6 14 1.7 10.3 13.3 21.2 19.7 29 5 5.7 11 14.3 18 16.5 9 2.4 17-4.7 23-8.8 10-6 20-13.5 25-23.7 3-4.8 1-11.8 1-17 1-8.7 2-17.3 2-26zm1-15l1 1-1-1z"/><path d="M305 375l1 1-1-1zm-148 9c0 14-.5 26 5.2 39 4.8 11 11 21 19 30 7 7.7 14.8 9 24.8 9 17.2 0 33.7-6.2 42.5-22 11-20 3.6-55-21.5-61.3-8-2-23.7 6.3-32 8-13.7 3-24.8-.4-38-2.7z"/><path d="M290 378l1 1-1-1zm-61 1l1 1-1-1zm-13 1c-144 88-72 44 0 0zm58.7 1.3c-183 87-91.6 43.6 0 0z"/><path d="m232.3 381.7c-155 87-77.4 43.4 0 0z"/><path d="M211 382c-140.7 86.7-70.3 43.3 0 0zm62 3c-182 84.7-91 42.3 0 0z"/><path d="M208 383l1 1-1-1m27 0l1 1-1-1m1 1l1 1-1-1m-74 1l1 1-1-1zm76 0l1 1-1-1zm1 1l1 1-1-1m33 0l1 1-1-1m-135 1l1 1-1-1zm54 0l1 1-1-1z"/><path d="M240 387l1 1-1-1m1 1l1 1-1-1m1 1l1 1-1-1m-106 1l1 1-1-1m107 0l1 1-1-1zm-107 1l1 1-1-1z"/><path d="M244 391l1 1-1-1m2 3l1 1zm-91 1l1 1-1-1zm96 8l1 1-1-1zm114 3c-1 6.8 1.4 18.2-1.5 24.2-7.2 15.3-24.4 25.4-38.5 33.7-6.6 3-13.2 7-21 5-16.8-6-21-26-35-34 0 9 .3 16 3.7 25 17.6 42 71.5 11 89.5-14 7.4-11 13.3-30 2.8-40m-208 3l1 1-1-1zm111 7.1l1 1-1-1zm-15 9l1 1zm21 1l1 1z"/><path d="m275 427 1 1-1-1zm3 4 1 1-1-1z"/><path d="M155 432c2.6 11 11 20.8 17.3 30 2 3.3 4.5 8.6 8 10.4 4.6 2.4 11.7 2.2 16.7 2.8 15.3 1.8 33.3 2.6 48-2.5 5.6-2 11.8-4 14.7-9.7 3-5.7-.6-14-1.7-20-5.6 6-9.4 12.4-16 17.5-14.2 11-43 17.8-59 6-12.4-9-17.4-24.2-28-34.5m11 0l1 1-1-1m113 0l1 1-1-1zm83 0l1 1-1-1z"/><path d="M167 433l1 1-1-1zm182 0l1 1-1-1zm-69 1l1 1-1-1m1 1l1 1-1-1z"/><path d="M282 436l1 1-1-1zm-113 1l1 1-1-1zm188 0l1 1-1-1z"/><path d="m170 438 1 1-1-1"/><path d="M356 438l1 1-1-1m-186 1l1 1-1-1zm114 0l1 1-1-1z"/><path d="M355 439l1 1-1-1m-197 1l1 1-1-1m13 0l1 1-1-1zm77 0l1 1-1-1zm37 0l1 1-1-1zm58 0l1 1-1-1z"/><path d="m354 440 1 1-1-1m-11 1 1 1-1-1m-54 4 1 1-1-1m-30 7c-172.7 40-86.3 20 0 0z"/><path d="M290 446l1 1-1-1zm-54 7l1 1-1-1m90 0l1 1-1-1zm15 0l1 1-1-1zm-44 1l1 1-1-1zm58 0l1 1-1-1zm-122 1l1 1-1-1z"/><path d="M248 455l1 1-1-1m38 0l1 1-1-1m12 0l1 1-1-1zm22 1l1 1-1-1zm1 0l1 1-1-1zm-92 1l1 1-1-1zm59 0l1 1-1-1zm31 0l1 1-1-1z"/><path d="M289 458l1 1zm86 1l1 1-1-1zm-175 3c-133.3 33.3-66.7 16.7 0 0z"/></svg>