<?xml version="1.0" encoding="UTF-8"?>
<!DOCTYPE svg PUBLIC "-//W3C//DTD SVG 1.1//EN" "http://www.w3.org/Graphics/SVG/1.1/DTD/svg11.dtd">
<svg clip-rule="evenodd" fill-rule="evenodd" image-rendering="optimizeQuality" shape-rendering="geometricPrecision" text-rendering="geometricPrecision" version="1.1" viewBox="0 0 136 136" xmlns="http://www.w3.org/2000/svg">
<path d="m90.5-0.5h2c-0.1596 1.653-0.8263 2.9863-2 4 0.0912-2.1977-0.5755-2.5311-2-1 0.2822-1.2776 0.9489-2.2777 2-3z" fill="#4f4f4f"/>
<path d="m90.5 3.5c-1.3333 1.3333-2.6667 2.6667-4 4 0.131-0.73891-0.0357-1.4056-0.5-2-1.7772 2.2899-3.9438 3.9566-6.5 5 2.3797-3.3806 5.3797-6.0472 9-8 1.4245-1.5311 2.0912-1.1977 2 1z" fill="#afafaf"/>
<path d="m97.5 8.5c0-0.66667-0.3333-1-1-1 0.7613-0.89092 1.7613-1.5576 3-2 1.139 1.8956 0.4728 2.8956-2 3z" fill="#858585"/>
<path d="m86.5 7.5c-1.3333 2-2.6667 4-4 6-1.3846 1.0736-2.5513 2.4069-3.5 4-0.6667 0.6667-0.6667 1.3333 0 2 1.7073-1.5375 3.2073-3.2041 4.5-5 1.3014-1.14 2.4681-2.4733 3.5-4l1 1c2.3974-2.2823 5.2307-3.6156 8.5-4 0.6667 0 1 0.33333 1 1-9.6249 9.7838-18.292 20.284-26 31.5 1.2375 0.2321 2.2375 0.7321 3 1.5-2.0648-0.0172-4.0648-0.3505-6-1h-3c-1.9767-1.6881-3.9767-2.0214-6-1-0.904 0.709-1.2373 1.709-1 3-1.4142-2.3673-2.7475-4.8673-4-7.5 0.6079-0.8699 1.4412-1.3699 2.5-1.5 2.2615 0.9259 4.2615 2.2592 6 4 1.5567-6.9038 3.7233-13.57 6.5-20 0.6174-0.1107 1.1174-0.444 1.5-1 0.3052 2.0568 0.3052 4.0568 0 6 1.1882-1.0634 1.6882-2.3967 1.5-4 2.3333-2.6667 4.6667-5.3333 7-8 2.5562-1.0434 4.7228-2.7101 6.5-5 0.4643 0.59442 0.631 1.2611 0.5 2z" fill="#e1e1e1"/>
<path d="m72.5 18.5c0.1882 1.6033-0.3118 2.9366-1.5 4 0.3052-1.9432 0.3052-3.9432 0-6-0.3826 0.556-0.8826 0.8893-1.5 1 4.5754-10.759 5.5754-10.426 3 1z" fill="#9e9e9e"/>
<path d="m82.5 13.5c0 0.6667 0.3333 1 1 1-1.2927 1.7959-2.7927 3.4625-4.5 5-0.6667-0.6667-0.6667-1.3333 0-2 0.9487-1.5931 2.1154-2.9264 3.5-4z" fill="#464646"/>
<path d="m65.5 40.5c0.1666 18.67-1e-4 37.336-0.5 56-9.366 10.595-9.866 21.595-1.5 33-2.0786-0.471-4.0786-1.137-6-2-17.277-15.804-15.777-29.804 4.5-42 1.5899-2.1498 2.2566-4.4832 2-7l-3 6c-4.3333 3.3333-8.6667 6.6667-13 10-7.2512 12.274-5.4179 23.108 5.5 32.5-0.6667 0.667-1.3333 0.667-2 0-11.466-9.736-15.966-21.902-13.5-36.5 1.3333-2 2.6667-4 4-6 5.9698-5.4819 12.303-10.482 19-15 2.1162-4.1276 3.1162-8.4609 3-13-1.2742 4.4901-2.9409 8.8234-5 13-10.72 5.3863-18.72 13.386-24 24-0.8098 4.7574-0.4764 9.424 1 14 2.8673 7.008 6.7006 13.342 11.5 19-10.227-4.424-16.727-12.09-19.5-23-2.1703-10.81 0.163-20.476 7-29 8.3333-6.6667 16.667-13.333 25-20 2.0875-5.1061 1.9209-10.106-0.5-15 2.0233-1.0214 4.0233-0.6881 6 1z" fill="#060606"/>
<path d="m59.5 39.5c2.4209 4.8939 2.5875 9.8939 0.5 15-8.3333 6.6667-16.667 13.333-25 20-6.837 8.5239-9.1703 18.19-7 29 2.7731 10.91 9.2731 18.576 19.5 23 0.9057 1.465 2.239 2.465 4 3 1.6667-1.333 3.3333-1.333 5 0 0.2871-0.7 0.6205-1.367 1-2 1.9214 0.863 3.9214 1.529 6 2 1.3333 1.333 2.6667 1.333 4 0 1.7624-0.762 2.7624-2.096 3-4 0.9013-0.79 1.5679-1.79 2-3 0.7216 0.418 1.2216 1.084 1.5 2 1.1036-0.894 2.2702-1.894 3.5-3 1.0664-2.201 1.733-4.535 2-7 1.0249-3.474 1.6916-7.14 2-11 0.2171-9.0413-0.2829-18.041-1.5-27-3.0605-7.1214-6.3938-14.121-10-21-1.4231-4.7848-1.9231-9.4515-1.5-14v-1c1.9352 0.6495 3.9352 0.9828 6 1 1.4137 3.8562 2.9137 7.8562 4.5 12 6.0803 4.2905 12.247 8.4571 18.5 12.5 13.045 11.994 16.878 26.827 11.5 44.5-1.635 4.438-3.801 7.771-6.5 10-1 0.333-1.667 1-2 2-6.2294 6.448-13.896 10.281-23 11.5-15.198 2.614-28.865-0.552-41-9.5-0.3333-1-1-1.667-2-2-0.3564-1.69-1.3564-2.69-3-3-8.426-11.607-10.259-24.274-5.5-38 2.3887-5.0541 5.5554-9.5541 9.5-13.5 6.8333-4.8333 13.667-9.6667 20.5-14.5 2.2088-3.289 3.0421-6.9557 2.5-11-0.2373-1.291 0.096-2.291 1-3z" fill="#f1f1f1"/>
<path d="m67.5 41.5h1c-0.4231 4.5485 0.0769 9.2152 1.5 14 3.6062 6.8786 6.9395 13.879 10 21 1.2171 8.9587 1.7171 17.959 1.5 27-1.1471-5.1416-1.9804-10.475-2.5-16-2.9272-7.5123-6.0938-14.846-9.5-22-1.518-7.9164-2.1847-15.916-2-24z" fill="#111"/>
<path d="m68.5 66.5c2.2051 6.0826 4.7051 12.083 7.5 18 2.8605 9.2414 3.1938 18.575 1 28-0.3333-4.333-0.6667-8.667-1-13-2.5402-7.0612-5.0402-14.061-7.5-21-1.1437-4.1478-1.1437-8.1478 0-12z" fill="#090909"/>
<path d="m68.5 85.5c6.3978 11.684 7.7312 24.018 4 37-0.4321 1.21-1.0987 2.21-2 3 1.2146-7.051 1.2146-14.051 0-21-0.6736-3.026-1.5069-6.0259-2.5-9-0.8075-3.5267-0.6408-6.8601 0.5-10z" fill="#080808"/>
<path d="m57.5 127.5c-0.3795 0.633-0.7129 1.3-1 2-1.6667-1.333-3.3333-1.333-5 0-1.761-0.535-3.0943-1.535-4-3-4.7994-5.658-8.6327-11.992-11.5-19-1.4764-4.576-1.8098-9.2426-1-14 5.2803-10.614 13.28-18.614 24-24 2.0591-4.1766 3.7258-8.5099 5-13 0.1162 4.5391-0.8838 8.8724-3 13-6.6969 4.5181-13.03 9.5181-19 15-1.3333 2-2.6667 4-4 6-2.4656 14.598 2.0344 26.764 13.5 36.5 0.6667 0.667 1.3333 0.667 2 0-10.918-9.392-12.751-20.226-5.5-32.5 4.3333-3.3333 8.6667-6.6667 13-10l3-6c0.2566 2.5168-0.4101 4.8502-2 7-20.277 12.196-21.777 26.196-4.5 42z" fill="#cbcbcb"/>
<path d="m67.5 41.5c-0.1847 8.0836 0.482 16.084 2 24-0.6667 0-1 0.3333-1 1-1.1437 3.8522-1.1437 7.8522 0 12-1.1227 2.188-1.1227 4.5213 0 7-1.1408 3.1399-1.3075 6.4733-0.5 10 0.9931 2.9741 1.8264 5.974 2.5 9-0.8382 0.342-1.1716 1.008-1 2-0.8019-1.452-1.3019-3.118-1.5-5-0.8213 7.179-0.6546 14.179 0.5 21-0.0394 1.083-0.3728 2.083-1 3 0.9246 1.062 1.9246 1.062 3 0-0.2376 1.904-1.2376 3.238-3 4-1.3208-29.461-1.3208-58.794 0-88z" fill="#797979"/>
<path d="m69.5 106.5c0.0276 5.362-0.3058 10.695-1 16-1.1546-6.821-1.3213-13.821-0.5-21 0.1981 1.882 0.6981 3.548 1.5 5z" fill="#070707"/>
<path d="m65.5 40.5h3v1h-1c-1.3208 29.206-1.3208 58.539 0 88-1.3333 1.333-2.6667 1.333-4 0-8.366-11.405-7.866-22.405 1.5-33 0.4999-18.664 0.6666-37.33 0.5-56z" fill="#ccc"/>
<path d="m64.5 99.5c1.1576 9.157 1.3243 18.491 0.5 28-7.0963-9.304-7.2629-18.637-0.5-28z" fill="#050505"/>
<path d="m79.5 114.5c-0.267 2.465-0.9336 4.799-2 7-0.5431-0.06-0.8764-0.393-1-1 0.4354-2.993 1.4354-4.993 3-6z" fill="#4b4b4b"/>
<path d="m69.5 65.5c3.4062 7.1544 6.5728 14.488 9.5 22 0.5196 5.5251 1.3529 10.858 2.5 16-0.3084 3.86-0.9751 7.526-2 11-1.5646 1.007-2.5646 3.007-3 6 0.1236 0.607 0.4569 0.94 1 1-1.2298 1.106-2.3964 2.106-3.5 3-0.2784-0.916-0.7784-1.582-1.5-2 3.7312-12.982 2.3978-25.316-4-37-1.1227-2.4787-1.1227-4.812 0-7 2.4598 6.9388 4.9598 13.939 7.5 21 0.3333 4.333 0.6667 8.667 1 13 2.1938-9.425 1.8605-18.759-1-28-2.7949-5.9174-5.2949-11.917-7.5-18 0-0.6667 0.3333-1 1-1z" fill="#bebebe"/>
<path d="m31.5 119.5c1.6436 0.31 2.6436 1.31 3 3-1.6436-0.31-2.6436-1.31-3-3z" fill="#5f5f5f"/>
<path d="m70.5 104.5c1.2146 6.949 1.2146 13.949 0 21-1.0754 1.062-2.0754 1.062-3 0 0.6272-0.917 0.9606-1.917 1-3 0.6942-5.305 1.0276-10.638 1-16-0.1716-0.992 0.1618-1.658 1-2z" fill="#d6d6d6"/>
<path d="m102.5 120.5c0 1.333-0.667 2-2 2 0.333-1 1-1.667 2-2z" fill="#363636"/>
<path d="m34.5 122.5c1 0.333 1.6667 1 2 2-1.3333 0-2-0.667-2-2z" fill="#313131"/>
</svg>