<svg id="Layer_1" data-name="Layer 1" xmlns="http://www.w3.org/2000/svg" width="966.795" height="966.795" viewBox="0 0 966.795 966.795"><defs><style>.cls-1{fill:#010101;}</style></defs><path class="cls-1" d="M175.26,342.211c-.571-1.807.275-2.364,2.409-2.537,19.053-1.542,38.094-3.219,57.139-4.856,5.485-.471,10.972-.93,16.455-1.425a3.2,3.2,0,0,1,2.337.656q10.521,7.772,21.091,15.475c1.046.759,1.122,1.259.336,2.309-4.629,6.185-9.228,12.394-13.714,18.683-.973,1.364-1.574,1.1-2.653.284-4.03-3.04-8.131-5.986-12.173-9.01a4.316,4.316,0,0,0-3.151-1q-20.336,1.791-40.68,3.5c-7.847.672-15.695,1.323-23.538,2.043-1.343.123-1.877-.15-1.986-1.631C176.585,357.305,175.914,349.917,175.26,342.211Z" transform="translate(-27.386 -28.036)"/><path class="cls-1" d="M510.783,28.036c-266.973,0-483.4,216.425-483.4,483.4s216.424,483.4,483.4,483.4,483.4-216.424,483.4-483.4S777.756,28.036,510.783,28.036ZM736.491,324.912c-22.245,43.611-57.275,71.84-104.632,84.541a158.062,158.062,0,0,1-40.179,5.014,161.662,161.662,0,0,1-79.958-21.46c-1.563-.893-1.727-1.3-.386-2.637Q620.313,281.527,729.189,172.582c1.431-1.431,1.887-1.155,2.789.427a159.964,159.964,0,0,1,20.546,64.414C755.508,268.109,750.487,297.474,736.491,324.912Zm-2.587,527.7c-.994,1.776-1.472,2.153-3.109.509q-30.505-30.669-61.154-61.2c-.892-.891-1.763-1.466-.361-2.862q37.233-37.088,74.368-74.271a4.966,4.966,0,0,1,.632-.4,149.853,149.853,0,0,1,8.073,28.341Q762.752,800.953,733.9,852.615ZM601.374,721.549c1.686-1.554,3.265-3.225,4.888-4.847q38.06-38.046,76.082-76.128c1.379-1.384,2.181-1.406,3.732-.311a170.729,170.729,0,0,1,28.556,25.428c1.087,1.209,1.224,1.855-.025,3.1q-41.365,41.231-82.642,82.552c-.429.428-.889.824-1.288,1.193-.694-.079-.985-.572-1.352-.938q-13.966-13.944-27.941-27.88C600.529,722.869,600.475,722.376,601.374,721.549Zm-36.588-38.518c-1.523,1.53-2.306,1.875-4.048.115q-23.645-23.89-47.523-47.547c-1.366-1.358-1.3-1.878.35-2.812a161.518,161.518,0,0,1,63.006-20.4,150.9,150.9,0,0,1,55.227,4.049,22.984,22.984,0,0,0-2.132,1.689Q597.2,650.549,564.786,683.031ZM828.7,797.918q3.039-5.3,6.083-10.591a5.442,5.442,0,0,1-.207-2.714c.239-9.257.33-18.506-.264-27.76A239.861,239.861,0,0,0,753.4,592.1c-41-36.114-88.974-55.853-143.411-59.841a232.253,232.253,0,0,0-57.141,3.012,237.874,237.874,0,0,0-115.967,54.706c-13.955,11.972-26.28,25.643-39.493,38.389-1.766,1.7-1.587,2.537.052,4.174q137.7,137.537,275.309,275.153a428.081,428.081,0,0,1-328.526-790.6,429.559,429.559,0,0,1,329.349-1.569Q553.953,235.1,434.365,354.713c-1.4,1.4-2.106,1.613-3.7.095q-48.249-45.96-111.767-25.632a2.638,2.638,0,0,1-3.138-.875q-14.138-14.107-28.338-28.153a6.1,6.1,0,0,0-2.626-1.739Q247.8,287.63,210.843,276.748c-1.78-.526-2.164.048-2.591,1.565-1.946,6.918-3.916,13.832-6.083,20.683-.668,2.113-.505,2.886,1.842,3.559,22.192,6.37,44.336,12.9,66.5,19.366a6.558,6.558,0,0,1,2.889,1.734c5.907,5.889,11.815,11.778,17.812,17.574,1.293,1.25,1.186,1.762-.209,2.858-31.508,24.738-45.926,57.082-42.256,97.021,2.188,23.805,11.981,44.487,28.509,61.735,12.28,12.816,25.066,25.147,37.538,37.782,1.594,1.615,2.378,1.711,4.046.038q54.144-54.3,108.38-108.5c1.36-1.363,2.044-1.522,3.571-.135a234.548,234.548,0,0,0,67.549,43.127,239.857,239.857,0,0,0,123.545,17.09A239.939,239.939,0,0,0,783.51,399.567c30.455-39.9,46.728-85.068,49.268-135.177a270.494,270.494,0,0,0-.363-29.822,8.723,8.723,0,0,0-.436-1.037Q828.1,226.8,824.2,220.072A427.405,427.405,0,0,1,828.7,797.918ZM390.935,393.435q-36.258,36.113-72.371,72.367c-1.546,1.552-2.254,1.213-3.491-.174-9.215-10.318-13.746-22.413-13.936-33.853.023-29.812,20.968-52.8,48.529-55.4,15.691-1.479,29.385,3.313,41.184,13.724C392.275,391.358,392.32,392.056,390.935,393.435Z" transform="translate(-27.386 -28.036)"/></svg>