<?xml version="1.0" standalone="no"?>
<!DOCTYPE svg PUBLIC "-//W3C//DTD SVG 20010904//EN"
 "http://www.w3.org/TR/2001/REC-SVG-20010904/DTD/svg10.dtd">
<svg version="1.0" xmlns="http://www.w3.org/2000/svg"
 width="512.000000pt" height="512.000000pt" viewBox="0 0 512.000000 512.000000"
 preserveAspectRatio="xMidYMid meet">

<g transform="translate(0.000000,512.000000) scale(0.100000,-0.100000)"
fill="#000000" stroke="none">
<path d="M112 4938 c-17 -17 -17 -3577 -1 -3730 20 -185 76 -362 161 -506 48
-82 218 -250 304 -301 197 -116 481 -167 777 -141 267 23 445 93 620 243 31
28 58 48 60 46 2 -2 11 -29 20 -59 22 -72 65 -140 129 -201 51 -49 174 -119
209 -119 17 0 19 -8 19 -63 0 -36 5 -68 12 -75 16 -16 180 -16 196 0 7 7 12
39 12 75 0 53 3 63 18 63 31 0 136 56 194 104 l57 46 568 0 c351 0 602 4 658
11 426 52 719 278 839 644 49 152 57 227 63 572 6 365 -4 528 -43 685 -58 234
-193 423 -375 525 -27 16 -49 31 -49 34 0 3 11 11 25 17 34 16 171 148 207
200 109 159 154 340 164 667 17 529 -65 822 -291 1033 -130 122 -308 196 -543
227 -149 20 -1351 22 -1370 3 -9 -9 -12 -397 -12 -1683 l0 -1672 -62 31 c-57
28 -71 31 -163 31 -90 0 -105 -3 -152 -28 l-53 -27 0 1668 c0 1284 -3 1671
-12 1680 -18 18 -731 17 -747 -1 -8 -10 -11 -527 -13 -1853 -3 -1731 -4 -1842
-21 -1891 -27 -79 -73 -133 -142 -168 -54 -27 -69 -30 -155 -30 -78 0 -104 4
-145 23 -91 42 -132 98 -160 214 -13 54 -15 310 -15 1878 0 1399 -3 1819 -12
1828 -17 17 -759 17 -776 0z m3883 -758 c60 -31 72 -42 101 -94 50 -90 59
-159 59 -431 0 -220 -2 -246 -22 -310 -32 -100 -70 -155 -129 -187 -84 -46
-152 -58 -321 -58 l-153 0 0 561 0 561 199 -3 198 -4 68 -35z m-117 -1820
c201 -26 283 -94 330 -277 14 -58 17 -119 17 -413 0 -332 -1 -348 -23 -418
-18 -57 -33 -83 -66 -116 -70 -71 -105 -79 -373 -84 l-233 -4 0 661 0 661 133
0 c73 0 170 -5 215 -10z m-1593 -1950 c10 -11 16 -20 13 -20 -3 0 -13 9 -23
20 -10 11 -16 20 -13 20 3 0 13 -9 23 -20z m427 -40 c-38 -32 -128 -60 -192
-60 -60 0 -148 26 -186 55 -10 8 6 4 36 -10 46 -21 70 -25 151 -25 86 0 101 3
150 29 66 34 70 36 41 11z"/>
</g>
</svg>
